<svg xmlns="http://www.w3.org/2000/svg" viewBox="0 0 800 133.16"><path fill="gold" d="M49.423 133.03c-1.823-.621-6.216-2.916-9.095-4.75a97 97 0 0 1-4.304-2.962c-2.994-2.21-6.789-5.658-10.124-9.2-1.42-1.508-1.968-2.129-2.794-3.164-3.315-4.155-6.316-8.755-8.309-12.737-2.07-4.134-3.354-7.338-4.645-11.593-.971-3.201-1.961-8.06-2.304-11.301-.17-1.62-.211-2.425-.213-4.228-.002-2.4.178-4.643.557-6.926.33-1.993 1.13-4.859 1.893-6.787.219-.552.39-1.01.38-1.017a4 4 0 0 0-.248-.132c-.41-.207-1.825-1.067-2.347-1.427C5.73 55.331 3.853 53.57 2.5 51.77c-.677-.9-1.043-1.486-1.483-2.37-.843-1.696-1.111-3.116-.86-4.57.148-.868.434-1.952.675-2.567 1.456-3.715 5.016-7.084 10.186-9.639 2.085-1.03 3.676-1.62 7.197-2.664 1.353-.402 3.577-.978 3.775-.978.167 0 .305-.208.453-.681.154-.495.866-3.802 1.705-7.926.808-3.967 1.023-4.88 1.484-6.283C28.265 6.074 33.636 1.318 41.267.243 42.528.065 43.14.028 44.724.032c2.969.007 5.934.292 8.56.822 1.829.37 5.228 1.443 7.102 2.241a48 48 0 0 1 6.349 3.29l.552.341.405-.001c.323-.001.657-.068 1.654-.331 2.724-.718 3.062-.733 6.23-.277 1.79.258 2.255.419 3.138 1.086.98.74 1.828 1.794 2.44 3.033.606 1.228.834 1.928 1.058 3.25.392 2.312.383 3.106-.181 16.187-.189 4.373-.35 8.21-.358 8.528l-.015.578.718.209c2.465.719 12.425 3.988 13.587 4.46 1.784.723 2.975 1.535 3.546 2.415 1.371 2.115-.66 4.786-5.93 7.802-.836.479-3.203 1.682-4.75 2.416l-.328.156.372.797c1.134 2.43 1.764 4.223 2.46 6.996.656 2.609 1.01 5.788 1.009 9.038-.002 3.372-.332 6.124-1.271 10.609-.828 3.95-2.208 8.331-3.769 11.965-2.496 5.812-5.079 10.24-9.057 15.53-2.06 2.74-3.54 4.4-6.753 7.578-3.768 3.726-6.939 6.308-11.133 9.069-3.094 2.036-8.067 4.66-9.913 5.23-.456.14-.556.139-1.023-.02zm1.624-5.752c2.877-1.492 5.814-3.21 7.45-4.357 3.756-2.634 7.752-6.006 10.197-8.604 2.831-3.008 4.668-5.227 6.81-8.229 1.368-1.915 3.242-5.005 4.612-7.6 1.076-2.039 2.547-5.228 3.152-6.833 1.25-3.32 2.092-6.344 2.937-10.556.547-2.73.763-5.084.761-8.322-.002-3.747-.266-5.739-1.192-8.988-.282-.986-.756-2.427-1.013-3.074-.188-.474-1-2.258-1.1-2.416-.031-.05-.432.07-1.578.467-4.507 1.565-9.078 2.851-12.63 3.554-5.253 1.04-8.262 1.393-14.093 1.656-.688.031-2.183.127-3.324.212-3.558.267-5.056.337-8.562.4-2.484.046-6.823-.05-8.323-.185-3.45-.308-5.853-.585-9.014-1.04-2.383-.342-3.629-.573-4.88-.906-1.898-.504-4.72-1.38-5.713-1.772l-.276-.11-.157.41c-.22.575-.656 1.922-.907 2.804-.928 3.252-1.192 5.247-1.194 9.014-.002 4.254.36 6.973 1.62 12.178.688 2.847 1.807 6.187 2.896 8.649 3.228 7.293 7.018 13.232 11.962 18.739 2.367 2.637 3.652 3.894 6.26 6.12 1.424 1.218 3.553 2.87 5.449 4.23 1.706 1.223 4.768 3.026 7.74 4.558.548.283 1.025.514 1.059.514s.507-.23 1.05-.513zm-1.803-9.412c-.073-.01-.348-.046-.612-.077-1.61-.195-3.659-.787-4.698-1.357-.629-.345-1.935-1.369-2.738-2.146-.676-.654-1.682-2.058-2.016-2.811-.255-.577.017-1.259.617-1.549.488-.236.775-.106 1.869.849.85.742 1.12.918 1.998 1.304 1.239.545 2.465.88 3.878 1.058 1.666.21 2.828.225 4.414.053 1.637-.176 2.614-.408 3.917-.929.9-.36 1.17-.503 2.329-1.24.557-.354 1.24-.76 1.518-.903.454-.234.532-.258.781-.237.632.053 1.172.736 1.058 1.342-.05.264-.408.713-1.325 1.66-.979 1.01-1.778 1.746-2.696 2.482-.885.709-1.275.97-2.083 1.387-1.369.71-2.303.957-4.137 1.094-.682.05-1.787.06-2.074.02zM56.072 102c-1.195-.17-1.768-.73-2-1.952-.047-.252-.067-.876-.065-2.038.004-1.753.081-2.7.347-4.281.286-1.696 1.001-3.76 2.065-5.956 1.15-2.372 1.828-3.347 3.484-5.003 1.617-1.618 3.27-3.087 4.283-3.805 2.152-1.524 6.086-3.18 8.951-3.767.989-.203 2.617-.378 4.242-.457.762-.037 4.73.07 4.795.13.054.05.445 1.447.53 1.895.095.504.095 3.593 0 4.466-.164 1.513-.486 3.082-.891 4.342-.555 1.729-1.803 4.386-2.628 5.597-1.402 2.058-4.374 5.017-6.693 6.666-1.42 1.009-2.682 1.66-4.848 2.498-2.288.887-3.838 1.254-6.328 1.5-1.511.15-4.659.248-5.244.165zm-16.746-.057c-1.693-.117-2.383-.225-3.927-.617-1.239-.314-1.948-.54-2.987-.95-2.837-1.122-4.338-1.977-6.248-3.56-1.666-1.379-3.511-3.235-4.674-4.702-.846-1.067-1.265-1.768-2.085-3.49-1.201-2.523-1.788-4.51-2.104-7.126-.109-.904-.155-3.522-.075-4.294.058-.57.47-2.236.576-2.333.021-.02.972-.065 2.113-.1 1.582-.05 2.326-.052 3.137-.005 1.257.072 2.75.233 3.534.382 3.268.62 7.716 2.566 9.894 4.329 1.623 1.313 4.227 3.847 5.083 4.945 1.07 1.374 2.227 3.592 3.126 5.992.669 1.784.898 2.76 1.159 4.937.096.807.118 1.28.121 2.632.004 1.735-.034 2.161-.24 2.713-.229.612-.68.998-1.37 1.174-.296.075-.685.092-2.374.104-1.112.008-2.308-.006-2.66-.03zm4.595-21.796c-.457-.178-1.124-.689-2.681-2.052-2.36-2.065-4.608-3.732-6.62-4.908-2.723-1.59-4.32-2.365-6.861-3.33-1.748-.664-2.17-.884-2.483-1.297-.42-.553-.353-1.41.134-1.742.34-.23.65-.264 1.79-.192 3.148.198 6.094 1.016 9.118 2.533 2.207 1.108 4.825 3.283 6.785 5.638.858 1.032 1.465 1.954 1.998 3.033.507 1.026.533 1.536.104 2.012-.35.39-.798.496-1.284.306m11.199.017a1.18 1.18 0 0 1-.627-.883c-.053-.345.102-.88.468-1.616 1.317-2.643 4.238-5.703 7.456-7.81.98-.64 3.307-1.7 4.788-2.178 1.102-.356 2.77-.733 4.028-.911.958-.136 2.53-.213 2.856-.14.617.138.867.462.867 1.125 0 .338-.022.436-.144.644-.291.494-.713.747-2.17 1.298-2.678 1.014-4.061 1.656-6.275 2.913-2.01 1.142-2.785 1.648-4.6 3.007a57 57 0 0 0-3.084 2.507c-1.471 1.288-2.218 1.863-2.652 2.043-.262.108-.705.109-.911.001zm-8.961-23.048c7.281-.307 12.657-.88 17.756-1.892 5.38-1.068 9.566-2.59 11.919-4.335.499-.37 1.541-1.358 1.541-1.46 0-.072-1.221-1.271-2-1.964-.6-.535-1.579-1.33-2.52-2.047l-.718-.548-.425.032c-.288.022-.967.18-2.101.487-5.534 1.502-9.127 2.247-13.96 2.896-3.249.436-8.097.703-10.622.585a82 82 0 0 1-8.576-.881c-2.078-.333-4.358-.912-5.86-1.489l-.755-.29-.362.057c-.975.154-2.87.964-3.952 1.69-3.516 2.358-2.967 4.899 1.55 7.167 1.417.712 2.846 1.186 4.7 1.56 1.357.275 1.94.318 5.85.435 1.14.034 2.085.074 2.1.089.039.04 4.976-.03 6.434-.092z"/><path fill="#58a6ff" d="M137.14 43.725h13.295l14.949 41.244q.473 1.418.827 3.19.473 1.832.768 3.487.355 1.95.65 3.959h1.005l-.177-1.3q-.178-1.3-.414-3.25-.177-2.009-.414-4.432-.177-2.422-.177-4.668v-38.23h9.572v62.043H163.73l-14.654-41.362q-.65-1.713-1.063-3.545-.414-1.832-.71-3.427-.354-1.832-.59-3.664h-1.005q.237 2.069.473 4.432.177 1.95.355 4.373.177 2.363.177 4.845v38.348h-9.572zm71.911 62.929q-4.609 0-8.509-1.3-3.84-1.359-6.5-3.782-2.659-2.422-4.136-5.85-1.477-3.486-1.477-7.68V76.045q0-4.195 1.477-7.681 1.477-3.428 4.136-5.85 2.66-2.423 6.5-3.723 3.9-1.3 8.509-1.3 4.668 0 8.509 1.418 3.781 1.3 6.44 3.664 2.718 2.422 4.137 5.909 1.477 3.427 1.477 7.622v8.627h-30.49v3.132q0 4.727 2.6 7.386 2.718 2.718 7.327 2.718 3.545 0 5.968-1.064 2.54-1.122 3.545-3.19H229.2q-.768 2.954-2.6 5.318-1.832 2.422-4.49 4.136-2.6 1.654-5.969 2.6-3.25.886-7.09.886zm-9.927-29.131h19.854v-1.418q0-4.727-2.54-7.327-2.6-2.66-7.387-2.66-4.609 0-7.327 2.66-2.6 2.6-2.6 7.268zm43.194 28.244v-9.809h17.018v-27.83h-14.83v-9.75h25.23v37.58h13.71v9.808zm13.886-60.211q0-2.482 1.655-4.077 1.713-1.596 4.49-1.596h2.246q2.777 0 4.431 1.596 1.714 1.595 1.714 4.077 0 2.6-1.714 4.136-1.772 1.536-4.49 1.536h-2.187q-2.777 0-4.49-1.536-1.655-1.536-1.655-4.136m37.285-2.659h10.754v34.212h7.623l11.818-18.731h12.113l-14.713 23.104 14.949 24.285h-12.35l-11.818-19.44h-7.623v19.44h-10.754zm52.234 62.929v-9.809h17.018v-27.83h-14.89v-9.75h25.231v37.58h13.768v9.808zm13.886-60.211q0-2.54 1.655-4.077 1.713-1.655 4.49-1.655H368q2.718 0 4.372 1.655 1.714 1.536 1.714 4.077t-1.714 4.136q-1.713 1.536-4.49 1.536h-2.128q-2.777 0-4.49-1.536-1.655-1.595-1.655-4.136m63.107 18.258h-13.768l11.227-26.826h9.454zm46.74 42.839h-3.428q-8.39 0-13.413-3.368-4.904-3.427-5.673-9.631h11.05q.532 2.245 2.66 3.545 2.186 1.182 5.377 1.182h3.427q4.077 0 6.263-1.537 2.245-1.654 2.245-4.372 0-4.786-7.386-5.79l-6.736-.769q-8.095-1.064-11.995-4.49-3.9-3.428-3.9-9.928 0-6.736 4.668-10.34 4.787-3.604 13.59-3.604h3.546q7.859 0 12.586 3.368 4.845 3.25 5.731 9.218H476.96q-.413-2.01-2.363-3.132-1.95-1.182-4.846-1.182h-3.545q-7.622 0-7.622 5.318 0 4.61 6.381 5.377l7.032.946q8.45 1.004 12.527 4.668 4.018 3.486 4.018 9.986 0 6.972-4.905 10.754-4.904 3.781-14.18 3.781zm83.373-.827V43.783h39.235v9.927h-28.54v15.954h26.294v9.927h-26.117v26.294zm60.566-29.603v11.64q0 4.313 2.6 6.854 2.659 2.482 7.268 2.482 4.55 0 7.15-2.482 2.659-2.54 2.659-6.854v-11.64q0-4.314-2.66-6.795-2.6-2.482-7.15-2.482-4.49 0-7.208 2.482-2.659 2.481-2.659 6.795m-10.813 11.64v-11.64q0-4.196 1.477-7.623 1.478-3.486 4.137-5.908 2.777-2.482 6.617-3.782 3.782-1.36 8.45-1.36t8.45 1.36q3.782 1.3 6.5 3.782 2.718 2.422 4.195 5.908 1.477 3.427 1.477 7.623v11.64q0 4.254-1.477 7.8-1.477 3.427-4.136 5.908-2.66 2.423-6.56 3.782-3.78 1.3-8.449 1.3-4.668 0-8.45-1.36-3.84-1.358-6.618-3.78-2.659-2.542-4.136-5.969t-1.477-7.681m54.952 17.963V58.437h10.222v8.213h.768q.827-4.313 4.314-6.618 3.427-2.422 8.804-2.422 7.681 0 11.995 4.727t4.313 13.118v3.427h-11.286V76.4q0-4.609-2.54-7.09-2.482-2.6-6.914-2.6-4.136 0-6.559 2.6-2.304 2.6-2.304 7.09v29.485zm48.04 0V58.437h8.153v6.913h.828q.236-3.604 2.304-5.672 2.186-2.068 5.673-2.068 3.368 0 5.613 2.068 2.363 2.068 3.25 5.672h.295q.296-3.604 2.364-5.672 2.127-2.068 5.672-2.068 4.314 0 6.736 3.25 2.541 3.19 2.541 8.804v36.22h-9.1V70.55q0-5.377-4.136-5.377-3.959 0-3.959 5.554v35.158h-9.1V70.55q0-4.432-2.835-5.2-.828-.177-1.3-.177-.414 0-1.3.177-2.66.768-2.66 5.377v35.158zm75.337.827h-3.486q-8.39 0-13.354-3.368-4.964-3.427-5.732-9.631h11.05q.532 2.245 2.718 3.545 2.128 1.182 5.318 1.182h3.487q4.018 0 6.204-1.537 2.245-1.654 2.245-4.372 0-4.786-7.327-5.79l-6.736-.769q-8.154-1.064-12.054-4.49-3.84-3.428-3.84-9.928 0-6.736 4.667-10.34 4.728-3.604 13.531-3.604h3.546q7.858 0 12.586 3.368 4.845 3.25 5.731 9.218h-11.05q-.472-2.01-2.422-3.132-1.891-1.182-4.846-1.182h-3.545q-7.622 0-7.622 5.318 0 4.61 6.44 5.377l6.973.946q8.45 1.004 12.527 4.668 4.077 3.486 4.077 9.986 0 6.972-4.964 10.754-4.904 3.781-14.122 3.781z" class="a"/></svg>